<svg xmlns="http://www.w3.org/2000/svg" viewBox="0 0 120 120" width="120" height="120">
  <rect width="120" height="120" rx="24" fill="#216331"/>
  <!-- Row 1: 1 ball (top) -->
  <circle cx="60" cy="32" r="11" fill="white" stroke="#bddfbe" stroke-width="1.5"/>
  <path d="M52 27 C56 33, 56 35, 52 41" fill="none" stroke="#555" stroke-width="1.2" stroke-linecap="round"/>
  <path d="M68 27 C64 33, 64 35, 68 41" fill="none" stroke="#555" stroke-width="1.2" stroke-linecap="round"/>
  <!-- Row 2: 2 balls -->
  <circle cx="46" cy="58" r="11" fill="white" stroke="#bddfbe" stroke-width="1.5"/>
  <path d="M38 53 C42 59, 42 61, 38 67" fill="none" stroke="#555" stroke-width="1.2" stroke-linecap="round"/>
  <path d="M54 53 C50 59, 50 61, 54 67" fill="none" stroke="#555" stroke-width="1.2" stroke-linecap="round"/>
  <circle cx="74" cy="58" r="11" fill="white" stroke="#bddfbe" stroke-width="1.5"/>
  <path d="M66 53 C70 59, 70 61, 66 67" fill="none" stroke="#555" stroke-width="1.2" stroke-linecap="round"/>
  <path d="M82 53 C78 59, 78 61, 82 67" fill="none" stroke="#555" stroke-width="1.2" stroke-linecap="round"/>
  <!-- Row 3: 3 balls -->
  <circle cx="32" cy="84" r="11" fill="white" stroke="#bddfbe" stroke-width="1.5"/>
  <path d="M24 79 C28 85, 28 87, 24 93" fill="none" stroke="#555" stroke-width="1.2" stroke-linecap="round"/>
  <path d="M40 79 C36 85, 36 87, 40 93" fill="none" stroke="#555" stroke-width="1.2" stroke-linecap="round"/>
  <circle cx="60" cy="84" r="11" fill="white" stroke="#bddfbe" stroke-width="1.5"/>
  <path d="M52 79 C56 85, 56 87, 52 93" fill="none" stroke="#555" stroke-width="1.2" stroke-linecap="round"/>
  <path d="M68 79 C64 85, 64 87, 68 93" fill="none" stroke="#555" stroke-width="1.2" stroke-linecap="round"/>
  <circle cx="88" cy="84" r="11" fill="white" stroke="#bddfbe" stroke-width="1.5"/>
  <path d="M80 79 C84 85, 84 87, 80 93" fill="none" stroke="#555" stroke-width="1.2" stroke-linecap="round"/>
  <path d="M96 79 C92 85, 92 87, 96 93" fill="none" stroke="#555" stroke-width="1.2" stroke-linecap="round"/>
  <!-- Crown on top ball -->
  <path d="M60 17 L62 22 L67 22 L63 25 L65 30 L60 27 L55 30 L57 25 L53 22 L58 22 Z" fill="white" opacity="0.85"/>
</svg>
